<svg width="14" height="17" viewBox="0 0 14 17" fill="none" xmlns="http://www.w3.org/2000/svg">
<path d="M4 0.25C4.41563 0.25 4.75 0.584375 4.75 1V2.25H9.25V1C9.25 0.584375 9.58438 0.25 10 0.25C10.4156 0.25 10.75 0.584375 10.75 1V2.25H12C13.1031 2.25 14 3.14687 14 4.25V4.75V6.25V14.25C14 15.3531 13.1031 16.25 12 16.25H2C0.896875 16.25 0 15.3531 0 14.25V6.25V4.75V4.25C0 3.14687 0.896875 2.25 2 2.25H3.25V1C3.25 0.584375 3.58437 0.25 4 0.25ZM12.5 6.25H1.5V14.25C1.5 14.525 1.725 14.75 2 14.75H12C12.275 14.75 12.5 14.525 12.5 14.25V6.25ZM10.2812 9.53125L6.78125 13.0312C6.4875 13.325 6.0125 13.325 5.72188 13.0312L3.72187 11.0312C3.42812 10.7375 3.42812 10.2625 3.72187 9.97188C4.01562 9.68125 4.49062 9.67813 4.78125 9.97188L6.25 11.4406L9.21875 8.47188C9.5125 8.17813 9.9875 8.17813 10.2781 8.47188C10.5687 8.76562 10.5719 9.24063 10.2781 9.53125H10.2812Z" fill="#515459"/>
</svg>
