<svg width="42" height="36" viewBox="0 0 42 36" fill="none" xmlns="http://www.w3.org/2000/svg">
<path d="M31.1966 8.99951C31.8952 9.01213 32.5897 8.90509 33.2394 8.68465C33.8891 8.4642 34.4809 8.1348 34.9802 7.71574C35.4795 7.29669 35.8762 6.79641 36.147 6.24424C36.4178 5.69207 36.5572 5.09911 36.5572 4.50013C36.5572 3.90115 36.4178 3.30819 36.147 2.75602C35.8762 2.20385 35.4795 1.70357 34.9802 1.28452C34.4809 0.865462 33.8891 0.536059 33.2394 0.315616C32.5897 0.0951742 31.8952 -0.0118709 31.1966 0.000756012C29.8237 0.025571 28.5168 0.510512 27.556 1.35161C26.5953 2.1927 26.0573 3.32299 26.0573 4.50013C26.0573 5.67727 26.5953 6.80756 27.556 7.64866C28.5168 8.48975 29.8237 8.97469 31.1966 8.99951ZM17.1931 14.471C17.4787 14.2247 17.7049 13.9327 17.8588 13.6115C18.0127 13.2903 18.0913 12.9463 18.0901 12.599C18.0889 12.2518 18.008 11.9082 17.8519 11.5878C17.6958 11.2674 17.4676 10.9765 17.1803 10.7317C16.893 10.4868 16.5523 10.2929 16.1776 10.161C15.8029 10.0291 15.4016 9.96169 14.9966 9.96272C14.5915 9.96374 14.1906 10.0331 13.8169 10.167C13.4431 10.3008 13.1037 10.4964 12.8181 10.7427L10.5315 12.7148H7.51331C6.69536 12.7148 5.91092 12.9934 5.33254 13.4891C4.75417 13.9849 4.42924 14.6574 4.42924 15.3585C4.42924 16.0597 4.75417 16.7321 5.33254 17.2279C5.91092 17.7237 6.69536 18.0023 7.51331 18.0023H10.7333C11.5159 18.0024 12.2906 17.8675 13.0111 17.6057C13.7317 17.3438 14.3834 16.9604 14.9275 16.4781L17.1908 14.471H17.1931ZM17.4008 23.1917C17.4008 23.1917 14.7431 22.7667 13.6558 23.1917C12.8461 23.5077 9.71247 24.4718 8.16665 24.9438V33.8046C9.06148 33.7606 10.8418 33.6796 11.6025 33.7056C13.8693 33.7846 15.5621 34.2456 17.2736 34.7117C18.8708 35.1467 20.4843 35.5867 22.5936 35.7237C23.1256 35.7577 23.6413 35.8027 24.1418 35.8457C25.9501 36.0018 27.5508 36.1398 28.8761 35.7237C30.5678 35.1927 40.2301 31.1574 41.4376 30.0953C42.6462 29.0332 42.0419 26.1649 38.2969 26.696C36.4501 26.958 34.3069 27.7121 32.3656 28.3951C30.3706 29.0962 28.5868 29.7242 27.5473 29.6702C25.4939 29.5642 20.0573 28.7141 20.0573 28.7141L26.2989 28.7792C26.2989 28.7792 27.1809 28.8192 28.3919 28.0771C29.6053 27.335 30.6879 25.2099 28.8761 25.2099C27.0643 25.2099 25.1311 24.6778 25.1311 24.6778L17.4008 23.1917ZM0 24.0028C0 23.7375 0.122916 23.4831 0.341708 23.2956C0.5605 23.108 0.857245 23.0027 1.16666 23.0027H4.66665C4.97607 23.0027 5.27282 23.108 5.49161 23.2956C5.7104 23.4831 5.83332 23.7375 5.83332 24.0028V34.9997C5.83332 35.2649 5.7104 35.5193 5.49161 35.7068C5.27282 35.8944 4.97607 35.9998 4.66665 35.9998H1.16666C0.857245 35.9998 0.5605 35.8944 0.341708 35.7068C0.122916 35.5193 0 35.2649 0 34.9997V24.0038V24.0028ZM33.4039 12.6588C34.2291 12.6583 35.0208 12.9388 35.6048 13.4386C36.1887 13.9384 36.5171 14.6166 36.5177 15.324C36.5184 16.0314 36.1911 16.7101 35.608 17.2106C35.025 17.7112 34.2338 17.9927 33.4086 17.9933L29.7488 17.9973C29.7324 17.9973 29.7173 17.9953 29.7021 17.9933C29.6874 17.9912 29.6726 17.9902 29.6578 17.9903C29.2886 17.9984 28.9215 17.941 28.5796 17.8215C28.2376 17.7021 27.9282 17.5232 27.6709 17.2962L26.8298 16.5741C26.3244 17.0234 25.7188 17.3809 25.049 17.6254C24.3792 17.8699 23.6588 17.9963 22.9308 17.9973H19.3339L18.7879 8.64548H24.5723C25.193 8.64542 25.8076 8.75153 26.3799 8.9576C26.9523 9.16367 27.4709 9.46556 27.9054 9.84558L31.1207 12.6588H33.4039Z" fill="white" fill-opacity="0.94"/>
</svg>
